<?xml version="1.0" encoding="UTF-8"?>
<svg id="Layer_1" xmlns="http://www.w3.org/2000/svg" version="1.1" viewBox="0 0 5669.29 2125.98">
  <!-- Generator: Adobe Illustrator 29.2.1, SVG Export Plug-In . SVG Version: 2.1.0 Build 116)  -->
  <defs>
    <style>
      .st0 {
        fill: #6d6e71;
      }

      .st1 {
        fill: #fff;
      }

      .st2 {
        fill: #28a9e1;
      }

      .st3 {
        fill: #52c6d8;
      }

      .st4 {
        fill: #939598;
      }
    </style>
  </defs>
  <g>
    <g>
      <path class="st3" d="M2253.36,867.81l11-91.55h182.43v244.37c-16.98,10.56-41.42,18.94-73.32,25.12-31.88,6.2-60.91,9.29-87.08,9.29-50.49,0-94.55-9.52-132.17-28.57-37.62-19.05-66.65-46.69-87.08-82.95-20.43-36.26-30.63-79.39-30.63-129.41s11.36-92.95,34.08-130.12c22.72-37.15,53.47-65.63,92.26-85.35,38.77-19.72,81.32-29.59,127.67-29.59,25.25,0,52.42,3.42,81.59,10.29,29.12,6.89,52.4,16.32,69.85,28.23l-37.17,84.68c-22.96-7.8-43.13-13.18-60.58-16.18-17.43-2.98-34.86-4.47-52.31-4.47-19.72,0-39.35,5.4-58.85,16.16-19.52,10.8-35.59,26.86-48.2,48.2-12.61,21.34-18.94,47.15-18.94,77.45s5.98,57.93,17.92,78.81c11.92,20.9,27.3,36.15,46.11,45.77,18.83,9.65,38.77,14.47,59.91,14.47,13.76,0,28.43-1.4,44.04-4.14v-80.54h-80.54Z"/>
      <polygon class="st3" points="2810.95 1046.1 2691.16 871.25 2654.68 905.68 2654.68 1046.1 2529.41 1046.1 2529.41 577.99 2654.68 577.99 2654.68 740.46 2842.6 567.66 2939.67 637.89 2780.67 786.57 2969.95 1046.1 2810.95 1046.1"/>
      <path class="st3" d="M3284.53,578l174.85,462.59-123.23,12.38-33.7-99.13h-161.8l-32.35,92.26h-124.58l175.52-468.1h125.3ZM3219.84,728.06l-44.75,127.36h91.55l-46.8-127.36Z"/>
      <polygon class="st3" points="3954.32 1046.1 3834.54 871.25 3798.06 905.68 3798.06 1046.1 3672.78 1046.1 3672.78 577.99 3798.06 577.99 3798.06 740.46 3985.98 567.66 4083.04 637.89 3924.04 786.57 4113.32 1046.1 3954.32 1046.1"/>
      <rect class="st3" x="4175.3" y="578.01" width="125.27" height="468.1"/>
      <polygon class="st3" points="4774.86 676.43 4625.47 676.43 4625.47 1046.1 4500.22 1046.1 4500.22 676.43 4362.52 676.43 4362.52 577.99 4763.17 577.99 4774.86 676.43"/>
      <polygon class="st3" points="4836.82 1046.1 4836.82 577.99 5147.28 577.99 5158.98 676.43 4962.1 676.43 4962.1 761.8 5105.96 761.8 5117.67 860.24 4962.1 860.24 4962.1 947.66 5167.94 947.66 5179.63 1046.1 4836.82 1046.1"/>
    </g>
    <g>
      <polygon class="st3" points="2486.85 1180.76 2397.24 1493.24 2313.62 1493.24 2262.14 1297.02 2213.89 1493.24 2130.26 1493.24 2036.52 1184.44 2118.78 1176.16 2173.47 1393.07 2220.33 1180.76 2303.51 1180.76 2356.8 1393.07 2403.69 1180.76 2486.85 1180.76"/>
      <path class="st3" d="M2666.53,1174.33c33.08,0,61.8,7.05,86.16,21.13,24.34,14.1,43.02,33.39,56.05,57.91,13.02,24.5,19.54,51.76,19.54,81.79,0,31.86-6.83,60.28-20.45,85.24-13.64,24.96-32.71,44.43-57.22,58.35-24.5,13.95-52.55,20.91-84.09,20.91s-60.89-7.12-85.24-21.36c-24.37-14.25-43.13-33.63-56.29-58.13-13.18-24.5-19.77-51.78-19.77-81.8,0-31.55,6.9-59.81,20.69-84.78,13.77-24.96,32.92-44.42,57.43-58.35,24.5-13.95,52.22-20.91,83.18-20.91M2591.17,1337.92c0,26.95,6.65,49.02,19.99,66.17,13.31,17.16,31.63,25.72,54.91,25.72s40.66-8.18,54.91-24.58c14.25-16.38,21.37-39.76,21.37-70.08,0-26.64-6.81-48.47-20.45-65.49-13.64-16.99-31.79-25.48-54.45-25.48-14.11,0-26.89,3.89-38.38,11.71-11.49,7.81-20.67,18.83-27.57,33.08-6.9,14.25-10.33,30.57-10.33,48.94"/>
      <path class="st3" d="M2878.82,1180.75h131.43c37.37,0,68.15,8.89,92.35,26.65,24.2,17.76,36.3,44.42,36.3,79.96,0,18.37-3.74,34.55-11.25,48.47-7.51,13.95-17.84,25.36-31.02,34.24l68.92,123.16h-96.95l-50.55-98.33h-55.61v98.33h-83.63v-312.48ZM3007.48,1246.47h-45.04v82.71h45.96c12.87,0,23.43-3.89,31.7-11.71,8.28-7.81,12.41-17.84,12.41-30.1,0-13.48-3.9-23.67-11.72-30.56-7.81-6.9-18.91-10.34-33.3-10.34"/>
      <polygon class="st3" points="3431.16 1493.23 3206.92 1493.23 3206.92 1180.75 3290.53 1180.75 3290.53 1427.52 3423.35 1427.52 3431.16 1493.23"/>
      <path class="st3" d="M3612.21,1493.23h-139.69v-312.48h141.52c31.27,0,58,6.6,80.2,19.75,22.22,13.18,38.99,31.42,50.31,54.7,11.34,23.27,17.02,49.92,17.02,79.96,0,31.85-6.29,59.73-18.85,83.61-12.55,23.91-30.19,42.28-52.85,55.15-22.68,12.87-48.56,19.31-77.66,19.31M3609.91,1246.47h-53.77v181.05h50.55c20.23,0,36.69-7.97,49.4-23.89,12.72-15.92,19.07-38.75,19.07-68.46,0-26.36-5.74-47.71-17.23-64.13-11.49-16.37-27.5-24.58-48.02-24.58"/>
      <polygon class="st3" points="4156.28 1246.47 4056.56 1246.47 4056.56 1493.23 3972.95 1493.23 3972.95 1246.47 3881.02 1246.47 3881.02 1180.75 4148.48 1180.75 4156.28 1246.47"/>
      <path class="st3" d="M4335.96,1174.33c33.08,0,61.8,7.05,86.16,21.13,24.34,14.1,43.02,33.39,56.05,57.91,13.02,24.5,19.54,51.76,19.54,81.79,0,31.86-6.83,60.28-20.45,85.24-13.64,24.96-32.71,44.43-57.22,58.35-24.5,13.95-52.55,20.91-84.09,20.91s-60.89-7.12-85.24-21.36c-24.37-14.25-43.13-33.63-56.29-58.13-13.18-24.5-19.77-51.78-19.77-81.8,0-31.55,6.9-59.81,20.69-84.78,13.77-24.96,32.92-44.42,57.43-58.35,24.5-13.95,52.22-20.91,83.18-20.91M4260.6,1337.92c0,26.95,6.65,49.02,19.99,66.17,13.31,17.16,31.63,25.72,54.91,25.72s40.66-8.18,54.91-24.58c14.25-16.38,21.37-39.76,21.37-70.08,0-26.64-6.81-48.47-20.45-65.49-13.64-16.99-31.79-25.48-54.45-25.48-14.11,0-26.89,3.89-38.38,11.71-11.49,7.81-20.67,18.83-27.57,33.08-6.9,14.25-10.33,30.57-10.33,48.94"/>
      <path class="st3" d="M4627.28,1180.76v188.87c0,19,5.21,33.76,15.63,44.33,10.42,10.58,24.06,15.85,40.9,15.85s30.47-5.27,40.89-15.85c10.43-10.57,15.63-25.33,15.63-44.33v-188.87h83.64v193c0,26.65-5.83,49.4-17.47,68.25-11.63,18.83-28.02,33.15-49.17,42.95-21.13,9.81-45.65,14.71-73.52,14.71s-52.39-4.9-73.53-14.71c-21.12-9.79-37.53-24.12-49.17-42.95-11.63-18.85-17.45-41.6-17.45-68.25v-193h83.63Z"/>
      <path class="st3" d="M4892.9,1180.75h131.43c37.37,0,68.15,8.89,92.35,26.65,24.2,17.76,36.3,44.42,36.3,79.96,0,18.37-3.74,34.55-11.25,48.47-7.51,13.95-17.84,25.36-31.02,34.24l68.92,123.16h-96.95l-50.55-98.33h-55.61v98.33h-83.63v-312.48ZM5021.57,1246.47h-45.04v82.71h45.96c12.87,0,23.43-3.89,31.7-11.71,8.28-7.81,12.41-17.84,12.41-30.1,0-13.48-3.9-23.67-11.72-30.56-7.81-6.9-18.91-10.34-33.3-10.34"/>
    </g>
  </g>
  <g>
    <path class="st1" d="M1067.79,1547.92c-284.01,0-514.25-230.27-514.25-514.23s230.24-514.29,514.25-514.29,514.22,230.29,514.22,514.29-230.21,514.23-514.22,514.23"/>
    <path class="st3" d="M1067.76,328.1c-389.62,0-705.5,315.89-705.5,705.57s315.87,705.56,705.5,705.56,705.56-315.93,705.56-705.56-315.87-705.57-705.56-705.57M1067.79,1547.92c-284.01,0-514.25-230.27-514.25-514.23s230.24-514.29,514.25-514.29,514.22,230.29,514.22,514.29-230.21,514.23-514.22,514.23"/>
    <path class="st1" d="M514.5,954.99c-4.15,30.55-28.47,48.68-57.48,44.78l-.3-.06c-27.91-3.77-47.82-28.63-43.79-58.36,2.4-17.67,8.62-27.69,18.71-36.74l14.55,15.82c-7.35,6.74-11.9,12.96-13.43,24.33-2.13,15.7,10.08,30.06,26.75,32.33l.28.04c17.95,2.45,32.82-8.11,35.16-25.51,1.07-7.87.06-15.12-3.1-21.14l-14.06-1.91-2.94,21.74-18.65-2.51,5.79-42.66,42.65,5.8c7.19,11.26,12.3,26.11,9.87,44.05"/>
    <polygon class="st1" points="543.88 833.4 494.1 849.1 501.72 863.77 530.46 873.39 523.51 894.07 429.55 862.54 436.5 841.87 477.57 855.68 449.28 803.74 457.68 778.77 484.68 830.43 552.21 808.56 543.88 833.4"/>
    <path class="st1" d="M596.22,729.55l-23.78-3.19-20.89,36.34,14.81,18.97-11.06,19.28-65.49-86.56,10.01-17.42,107.76,12.79-11.35,19.79ZM517.38,718.97l21.37,27.41,13.09-22.83-34.46-4.58Z"/>
    <polygon class="st1" points="685.44 623.05 633.82 615.37 634.27 631.88 655.86 653.13 640.59 668.66 569.9 599.21 585.21 583.65 616.11 614.03 613.38 555 631.84 536.21 633.54 594.45 703.8 604.37 685.44 623.05"/>
    <polygon class="st1" points="716.13 597.13 655.56 518.59 672.84 505.26 733.4 583.8 716.13 597.13"/>
    <polygon class="st1" points="750.12 478.79 790.4 546.77 771.64 557.88 731.36 489.9 705.39 505.27 695.16 487.95 765.82 446.11 776.07 463.4 750.12 478.79"/>
    <polygon class="st1" points="825.02 527.52 787.96 435.5 857.37 407.56 864.67 425.57 815.35 445.4 822.85 464.07 866.25 446.61 873.49 464.61 830.1 482.08 837.88 501.41 887.85 481.31 895.1 499.29 825.02 527.52"/>
    <polygon class="st1" points="1054.42 472.92 1035.5 474.74 1006.94 412.34 990.97 479.09 972.07 480.93 928.69 384.78 951.94 382.53 978.88 447.36 994.51 378.1 1013.12 376.28 1041.81 441.25 1055.73 372.44 1078.43 370.21 1054.42 472.92"/>
    <path class="st1" d="M1133.96,479.31c-30.36-3.68-49.37-28.99-46-56.96l.06-.28c3.37-27.99,28.26-48.21,58.63-44.51,30.37,3.7,49.42,28.99,45.99,56.96l-.02.3c-3.41,27.96-28.29,48.18-58.66,44.49M1169.97,432.05c2.07-16.86-8.6-32.43-26.03-34.56-17.43-2.12-31.21,10.2-33.27,27.06l-.02.28c-2.06,16.86,8.6,32.43,26.02,34.56,17.43,2.12,31.19-10.18,33.27-27.05l.03-.3Z"/>
    <path class="st1" d="M1254.7,505.6l-10.77-36.62-16.33-5.14-9.5,30.25-20.83-6.53,29.72-94.54,43.21,13.57c22.28,7.01,31.95,22.98,25.86,42.41l-.07.27c-4.79,15.25-16.04,22.26-29.46,22.95l12.5,41.02-24.32-7.63ZM1274.67,443.45c2.8-8.92-1.95-15.45-12.12-18.65l-20.65-6.49-8.51,27.15,21.05,6.62c10.12,3.19,17.64-.4,20.14-8.37l.09-.27Z"/>
    <polygon class="st1" points="1295.59 521.45 1341.09 433.28 1360.47 443.28 1324.07 513.83 1368.03 536.49 1358.92 554.12 1295.59 521.45"/>
    <path class="st1" d="M1404.51,586.65l-30.64-23.48,60.27-78.6,30.64,23.53c24.71,18.92,28.76,48.97,11.79,71.1l-.19.22c-16.95,22.1-47.18,26.21-71.87,7.23M1458.32,565.55c10.69-13.9,8.65-31-5.5-41.86l-13.35-10.26-36.35,47.39,13.38,10.24c14.14,10.84,30.99,8.63,41.65-5.29l.18-.22Z"/>
    <polygon class="st1" points="1575.91 646.61 1513.83 695.56 1500.31 678.44 1562.38 629.49 1543.7 605.8 1559.51 593.32 1610.38 657.85 1594.59 670.33 1575.91 646.61"/>
    <path class="st1" d="M1558.48,768.62c-14.48-26.94-4.8-57.11,20.01-70.47l.27-.12c24.81-13.33,55.66-4.68,70.17,22.25,14.51,26.93,4.8,57.06-20.01,70.42l-.24.13c-24.84,13.36-55.71,4.7-70.2-22.22M1617.87,770.77c14.97-8.07,21.53-25.77,13.21-41.21-8.32-15.46-26.29-19.62-41.27-11.57l-.27.15c-14.96,8.02-21.52,25.72-13.21,41.18,8.34,15.46,26.32,19.64,41.3,11.57l.24-.12Z"/>
    <path class="st1" d="M1599.23,864.82c-8.04-25.36,1.24-45.39,29.03-54.19l53.98-17.09,6.59,20.79-53.44,16.91c-15.39,4.88-20.92,15.09-16.91,27.76,4.03,12.7,14.17,17.97,29.15,13.23l54.11-17.13,6.55,20.79-53.29,16.86c-28.61,9.05-47.73-2.56-55.77-27.93"/>
    <path class="st1" d="M1624.94,980.82l28.64-25.26-2.25-16.97-31.46,4.16-2.88-21.65,98.35-13.05,5.96,44.96c3.06,23.19-7.28,38.69-27.53,41.38l-.28.06c-15.88,2.1-26.99-5.16-33.28-17.01l-31.94,28.66-3.34-25.27ZM1689.74,972.63c9.27-1.24,13.2-8.32,11.81-18.85l-2.88-21.5-28.23,3.74,2.92,21.92c1.4,10.54,7.81,15.82,16.1,14.72l.27-.03Z"/>
    <path class="st3" d="M1172.82,1144.64c81.41-57.77,164.24-133.36,155.31-204.28,0,0-32-84.05-165.75-75.73-133.74,8.28-98.23,108.89-53.26,179.9,36.38,57.47,57.05,89.75,63.7,100.11"/>
    <path class="st4" d="M1328.13,940.36s146.65,202.45-18.95,387.06c-144.43,160.96-369.33,114.81-395.36,46.19-23.65-62.31,60.36-104.21,136.14-150.35,75.73-46.18,292.36-170.43,278.18-282.91"/>
    <path class="st2" d="M970.26,922.68c-81.41,57.77-164.24,133.36-155.31,204.3,0,0,31.97,84.01,165.71,75.76,133.78-8.31,98.29-108.89,53.31-179.95-36.41-57.47-57.05-89.73-63.7-100.11"/>
    <path class="st0" d="M814.95,1126.98s-146.66-202.48,18.94-387.06c144.4-160.98,369.3-114.81,395.38-46.18,23.63,62.3-60.36,104.17-136.12,150.3-75.75,46.19-292.39,170.45-278.19,282.94"/>
  </g>
</svg>