<svg viewBox="0 0 278.3 55" xmlns="http://www.w3.org/2000/svg"><g fill="#00AEEF" transform="matrix(1.3333333 0 0 -1.3333333 0 55.0264)"><path d="m0 6.1v29.1l7.8-4.2c1-.6 1.6-1.4 1.6-2.7v-15.4c0-1.2-.6-2.2-1.6-2.7zm36.1 19.1v-9.3c0-1.7-.7-2.7-2.2-3.5l-22.3-12.4v8c0 1.2.5 2.2 1.6 2.7l13 7.3c.5.3.8.8.8 1.4v2.4c0 .6-.3 1.1-.8 1.4l-13.1 7.3c-1 .6-1.6 1.5-1.6 2.7v8.1l22.4-12.5c1.5-.9 2.2-1.9 2.2-3.6"></path><path d="m61 35.2c5.6 0 9-3.5 9-9.2v-10.7c0-5.7-3.4-9.2-9-9.2h-10.3v29.1zm3.6-19.7v10.3c0 2.9-1.3 4.4-4.1 4.4h-4.5v-19.1h4.5c2.8 0 4.1 1.4 4.1 4.4"></path><path d="m74.3 15.2v20h5.4v-20c0-2.9 1.4-4.5 4.2-4.5h.2c2.7 0 4.2 1.6 4.2 4.5v20h5.4v-20c0-5.9-3.5-9.5-8.9-9.5h-1.5c-5.5-.1-9 3.6-9 9.5"></path><path d="m98.1 15.2v10.8c0 5.9 3.5 9.5 8.9 9.5h1.5c5.4 0 8.9-3.6 8.9-9.5v-10.8c0-5.9-3.5-9.5-8.9-9.5h-1.5c-5.4-.1-8.9 3.6-8.9 9.5m14 0v10.8c0 2.9-1.4 4.5-4.2 4.5h-.2c-2.7 0-4.3-1.6-4.3-4.5v-10.8c0-2.9 1.5-4.5 4.3-4.5h.2c2.7 0 4.2 1.6 4.2 4.5"></path><path d="m132.5 30.3v-24.2h-5.4v24.2h-6.9v4.9h19.2v-4.9z"></path><path d="m142.2 15.2v10.8c0 5.9 3.5 9.5 8.9 9.5h1.5c5.4 0 8.9-3.6 8.9-9.5v-10.8c0-5.9-3.5-9.5-8.9-9.5h-1.5c-5.4-.1-8.9 3.6-8.9 9.5m14 0v10.8c0 2.9-1.4 4.5-4.2 4.5h-.2c-2.7 0-4.3-1.6-4.3-4.5v-10.8c0-2.9 1.5-4.5 4.3-4.5h.2c2.7 0 4.2 1.6 4.2 4.5"></path><path d="m172.9 35.2 8.6-20v20h5.4v-29.1h-6.9l-8.6 20v-20h-5.4v29.1z"></path><path d="m191.8 35.2v-29.1h16.9v5h-11.5v7.5h10.3v5h-10.3v6.7h11.1v5z"></path></g></svg>
